<svg width="41" height="41" viewBox="0 0 41 41" fill="none" xmlns="http://www.w3.org/2000/svg">
<path fill-rule="evenodd" clip-rule="evenodd" d="M28.7714 25.4107H26.9428L26.2571 24.725C28.5428 22.2107 29.9142 18.7821 29.9142 15.125C29.9142 6.89643 23.2857 0.267857 15.0571 0.267857C6.82852 0.267857 0.199951 6.89643 0.199951 15.125C0.199951 23.3536 6.82852 29.9821 15.0571 29.9821C18.7142 29.9821 22.1428 28.6107 24.6571 26.325L25.3428 27.0107V28.8393L36.7714 40.2679L40.2 36.8393L28.7714 25.4107ZM15.057 25.4107C9.34267 25.4107 4.77124 20.8393 4.77124 15.125C4.77124 9.41072 9.34267 4.83929 15.057 4.83929C20.7712 4.83929 25.3427 9.41072 25.3427 15.125C25.3427 20.8393 20.7712 25.4107 15.057 25.4107Z" fill="white"/>
</svg>
